<mxfile host="app.diagrams.net" modified="2024-01-15T10:04:55.777Z" agent="Mozilla/5.0 (Windows NT 10.0; Win64; x64) AppleWebKit/537.36 (KHTML, like Gecko) Chrome/120.0.0.0 Safari/537.36" etag="qvfmgVOMoTsecRRmP5Qs" version="22.1.18" type="github">
  <diagram name="Page-1" id="w6ryiPvK24-abp0Cc746">
    <mxGraphModel dx="936" dy="1593" grid="1" gridSize="10" guides="1" tooltips="1" connect="1" arrows="1" fold="1" page="1" pageScale="1" pageWidth="850" pageHeight="1100" math="0" shadow="0">
      <root>
        <mxCell id="0" />
        <mxCell id="1" parent="0" />
        <mxCell id="yRMbKKYwfMMUedzel-1i-1" value="" style="shape=umlLifeline;perimeter=lifelinePerimeter;whiteSpace=wrap;html=1;container=1;dropTarget=0;collapsible=0;recursiveResize=0;outlineConnect=0;portConstraint=eastwest;newEdgeStyle={&quot;curved&quot;:0,&quot;rounded&quot;:0};participant=umlActor;strokeColor=#006633;fontColor=#006633;" vertex="1" parent="1">
          <mxGeometry x="330" y="-110" width="20" height="300" as="geometry" />
        </mxCell>
        <mxCell id="yRMbKKYwfMMUedzel-1i-2" value="" style="shape=umlLifeline;perimeter=lifelinePerimeter;whiteSpace=wrap;html=1;container=1;dropTarget=0;collapsible=0;recursiveResize=0;outlineConnect=0;portConstraint=eastwest;newEdgeStyle={&quot;curved&quot;:0,&quot;rounded&quot;:0};participant=umlActor;strokeColor=#006633;fontColor=#006633;" vertex="1" parent="1">
          <mxGeometry x="110" y="-1040" width="20" height="340" as="geometry" />
        </mxCell>
        <mxCell id="yRMbKKYwfMMUedzel-1i-3" value="up-web" style="shape=umlLifeline;perimeter=lifelinePerimeter;whiteSpace=wrap;html=1;container=1;dropTarget=0;collapsible=0;recursiveResize=0;outlineConnect=0;portConstraint=eastwest;newEdgeStyle={&quot;curved&quot;:0,&quot;rounded&quot;:0};strokeColor=#006633;fontColor=#006633;" vertex="1" parent="1">
          <mxGeometry x="290" y="-1040" width="100" height="340" as="geometry" />
        </mxCell>
        <mxCell id="yRMbKKYwfMMUedzel-1i-6" value="" style="html=1;points=[[0,0,0,0,5],[0,1,0,0,-5],[1,0,0,0,5],[1,1,0,0,-5]];perimeter=orthogonalPerimeter;outlineConnect=0;targetShapes=umlLifeline;portConstraint=eastwest;newEdgeStyle={&quot;curved&quot;:0,&quot;rounded&quot;:0};strokeColor=#006633;fontColor=#006633;" vertex="1" parent="yRMbKKYwfMMUedzel-1i-3">
          <mxGeometry x="45" y="90" width="10" height="210" as="geometry" />
        </mxCell>
        <mxCell id="yRMbKKYwfMMUedzel-1i-4" value="up-identity" style="shape=umlLifeline;perimeter=lifelinePerimeter;whiteSpace=wrap;html=1;container=1;dropTarget=0;collapsible=0;recursiveResize=0;outlineConnect=0;portConstraint=eastwest;newEdgeStyle={&quot;curved&quot;:0,&quot;rounded&quot;:0};strokeColor=#006633;fontColor=#006633;" vertex="1" parent="1">
          <mxGeometry x="480" y="-1040" width="100" height="340" as="geometry" />
        </mxCell>
        <mxCell id="yRMbKKYwfMMUedzel-1i-8" value="" style="html=1;points=[[0,0,0,0,5],[0,1,0,0,-5],[1,0,0,0,5],[1,1,0,0,-5]];perimeter=orthogonalPerimeter;outlineConnect=0;targetShapes=umlLifeline;portConstraint=eastwest;newEdgeStyle={&quot;curved&quot;:0,&quot;rounded&quot;:0};strokeColor=#006633;fontColor=#006633;" vertex="1" parent="yRMbKKYwfMMUedzel-1i-4">
          <mxGeometry x="45" y="90" width="10" height="80" as="geometry" />
        </mxCell>
        <mxCell id="yRMbKKYwfMMUedzel-1i-5" value="up-wcms" style="shape=umlLifeline;perimeter=lifelinePerimeter;whiteSpace=wrap;html=1;container=1;dropTarget=0;collapsible=0;recursiveResize=0;outlineConnect=0;portConstraint=eastwest;newEdgeStyle={&quot;curved&quot;:0,&quot;rounded&quot;:0};strokeColor=#006633;fontColor=#006633;" vertex="1" parent="1">
          <mxGeometry x="650" y="-1040" width="100" height="340" as="geometry" />
        </mxCell>
        <mxCell id="yRMbKKYwfMMUedzel-1i-9" value="" style="html=1;points=[[0,0,0,0,5],[0,1,0,0,-5],[1,0,0,0,5],[1,1,0,0,-5]];perimeter=orthogonalPerimeter;outlineConnect=0;targetShapes=umlLifeline;portConstraint=eastwest;newEdgeStyle={&quot;curved&quot;:0,&quot;rounded&quot;:0};strokeColor=#006633;fontColor=#006633;" vertex="1" parent="yRMbKKYwfMMUedzel-1i-5">
          <mxGeometry x="45" y="180" width="10" height="80" as="geometry" />
        </mxCell>
        <mxCell id="yRMbKKYwfMMUedzel-1i-7" value="Redirect using below url&lt;br&gt;/up-redirect?appSource=incomeapp&amp;amp;&lt;br&gt;page=/distribution-records" style="html=1;verticalAlign=bottom;startArrow=oval;endArrow=block;startSize=8;curved=0;rounded=0;entryX=0;entryY=0;entryDx=0;entryDy=5;strokeColor=#006633;fontColor=#006633;" edge="1" target="yRMbKKYwfMMUedzel-1i-6" parent="1" source="yRMbKKYwfMMUedzel-1i-2">
          <mxGeometry relative="1" as="geometry">
            <mxPoint x="210" y="-695" as="sourcePoint" />
          </mxGeometry>
        </mxCell>
        <mxCell id="yRMbKKYwfMMUedzel-1i-11" value="Check UP session&amp;nbsp;" style="html=1;verticalAlign=bottom;endArrow=block;curved=0;rounded=0;exitX=1;exitY=0;exitDx=0;exitDy=5;exitPerimeter=0;fontColor=#006633;strokeColor=#006633;" edge="1" parent="1" source="yRMbKKYwfMMUedzel-1i-6" target="yRMbKKYwfMMUedzel-1i-4">
          <mxGeometry width="80" relative="1" as="geometry">
            <mxPoint x="350" y="-944" as="sourcePoint" />
            <mxPoint x="430" y="-944" as="targetPoint" />
          </mxGeometry>
        </mxCell>
        <mxCell id="yRMbKKYwfMMUedzel-1i-12" value="return" style="html=1;verticalAlign=bottom;endArrow=open;dashed=1;endSize=8;curved=0;rounded=0;fontColor=#006633;strokeColor=#006633;" edge="1" parent="1" source="yRMbKKYwfMMUedzel-1i-8">
          <mxGeometry relative="1" as="geometry">
            <mxPoint x="425" y="-880" as="sourcePoint" />
            <mxPoint x="345" y="-880" as="targetPoint" />
          </mxGeometry>
        </mxCell>
        <mxCell id="yRMbKKYwfMMUedzel-1i-17" value="return" style="html=1;verticalAlign=bottom;endArrow=open;dashed=1;endSize=8;curved=0;rounded=0;" edge="1" parent="1" source="yRMbKKYwfMMUedzel-1i-16">
          <mxGeometry relative="1" as="geometry">
            <mxPoint x="340" y="-812" as="sourcePoint" />
            <mxPoint x="119.5" y="-812" as="targetPoint" />
          </mxGeometry>
        </mxCell>
        <mxCell id="yRMbKKYwfMMUedzel-1i-18" value="" style="html=1;verticalAlign=bottom;endArrow=open;dashed=1;endSize=8;curved=0;rounded=0;" edge="1" parent="1">
          <mxGeometry relative="1" as="geometry">
            <mxPoint x="335" y="-810.3636363636364" as="sourcePoint" />
            <mxPoint x="290" y="-810.3636363636364" as="targetPoint" />
          </mxGeometry>
        </mxCell>
        <mxCell id="yRMbKKYwfMMUedzel-1i-16" value="&lt;font style=&quot;font-size: 10px;&quot;&gt;If session and redirect&lt;br&gt;url is valid, then redirect to the requested page or redirect to not found&lt;/font&gt;" style="rounded=0;whiteSpace=wrap;html=1;fontColor=#006633;strokeColor=#006633;" vertex="1" parent="1">
          <mxGeometry x="170" y="-842" width="120" height="60" as="geometry" />
        </mxCell>
        <mxCell id="yRMbKKYwfMMUedzel-1i-20" value="get feconfig list" style="html=1;verticalAlign=bottom;endArrow=block;curved=0;rounded=0;fontColor=#006633;strokeColor=#006633;" edge="1" parent="1" source="yRMbKKYwfMMUedzel-1i-6" target="yRMbKKYwfMMUedzel-1i-5">
          <mxGeometry width="80" relative="1" as="geometry">
            <mxPoint x="360" y="-840" as="sourcePoint" />
            <mxPoint x="545" y="-840" as="targetPoint" />
          </mxGeometry>
        </mxCell>
        <mxCell id="yRMbKKYwfMMUedzel-1i-21" value="return" style="html=1;verticalAlign=bottom;endArrow=open;dashed=1;endSize=8;curved=0;rounded=0;strokeColor=#006666;entryX=1;entryY=0.5;entryDx=0;entryDy=0;" edge="1" parent="1" source="yRMbKKYwfMMUedzel-1i-9" target="yRMbKKYwfMMUedzel-1i-24">
          <mxGeometry relative="1" as="geometry">
            <mxPoint x="695" y="-797" as="sourcePoint" />
            <mxPoint x="550" y="-797" as="targetPoint" />
          </mxGeometry>
        </mxCell>
        <mxCell id="yRMbKKYwfMMUedzel-1i-24" value="&lt;font style=&quot;font-size: 10px;&quot;&gt;If appsource&lt;br&gt;available in&amp;nbsp;&lt;br&gt;webview config ?&lt;/font&gt;" style="rhombus;whiteSpace=wrap;html=1;" vertex="1" parent="1">
          <mxGeometry x="480" y="-842" width="115" height="102" as="geometry" />
        </mxCell>
        <mxCell id="yRMbKKYwfMMUedzel-1i-26" value="return" style="html=1;verticalAlign=bottom;endArrow=open;dashed=1;endSize=8;curved=0;rounded=0;fontColor=#006633;strokeColor=#006633;exitX=0;exitY=0.5;exitDx=0;exitDy=0;" edge="1" parent="1" source="yRMbKKYwfMMUedzel-1i-24" target="yRMbKKYwfMMUedzel-1i-6">
          <mxGeometry relative="1" as="geometry">
            <mxPoint x="460" y="-790" as="sourcePoint" />
            <mxPoint x="345" y="-790" as="targetPoint" />
          </mxGeometry>
        </mxCell>
      </root>
    </mxGraphModel>
  </diagram>
</mxfile>
